<svg version="1.0" xmlns="http://www.w3.org/2000/svg"
 width="1789.000000pt" height="573.000000pt" viewBox="0 0 1789.000000 573.000000"
 preserveAspectRatio="xMidYMid meet"  stroke="blue" fill="purple">

<g transform="translate(0.000000,573.000000) scale(0.100000,-0.100000)"
 stroke="blue" fill="purple">
<path d="M3672 4635 c-114 -26 -182 -82 -182 -152 0 -71 118 -120 265 -110 99
7 165 29 207 70 l33 32 -74 3 c-64 3 -77 0 -97 -19 -32 -30 -114 -38 -149 -15
-35 23 -33 66 4 108 25 28 34 32 84 32 44 1 60 -4 79 -21 21 -19 35 -23 95
-23 65 0 71 2 66 19 -7 27 -42 56 -83 70 -56 19 -178 22 -248 6z"/>
<path d="M5139 4640 c-191 -32 -267 -178 -125 -242 43 -19 67 -23 161 -22 126
0 208 24 246 72 l21 27 -68 3 c-57 3 -72 0 -98 -19 -36 -27 -111 -35 -146 -17
-57 30 -26 117 51 139 45 14 113 -1 123 -26 4 -11 23 -15 81 -15 48 0 75 4 75
11 0 6 -15 26 -33 44 -47 47 -165 66 -288 45z"/>
<path d="M7703 4636 c-79 -18 -125 -51 -121 -86 4 -34 39 -49 156 -67 54 -8
101 -19 107 -24 29 -28 -105 -41 -141 -14 -19 14 -144 22 -157 9 -13 -13 14
-42 55 -59 86 -34 273 -29 350 11 34 18 60 56 52 77 -8 22 -68 44 -161 57 -91
13 -114 23 -96 41 7 7 28 9 60 5 26 -4 83 -9 126 -12 71 -5 78 -4 75 12 -9 50
-181 78 -305 50z"/>
<path d="M9171 4639 c-112 -20 -184 -69 -196 -133 -14 -75 58 -124 195 -133
179 -13 333 61 333 158 0 39 -44 83 -100 99 -56 15 -171 20 -232 9z m154 -69
c17 -14 20 -62 5 -91 -34 -62 -181 -65 -196 -3 -15 59 57 119 133 111 24 -3
50 -10 58 -17z"/>
<path d="M11012 4640 c-110 -17 -212 -92 -212 -156 0 -86 171 -139 320 -100
32 8 56 11 58 5 2 -5 27 -9 56 -9 l53 0 15 70 15 70 -109 0 c-104 0 -109 -1
-117 -22 -7 -20 -5 -23 20 -26 36 -4 37 -19 3 -32 -57 -22 -138 -5 -150 32
-10 33 27 91 68 107 42 15 99 9 122 -14 10 -11 37 -15 90 -15 42 0 76 3 76 6
0 62 -163 107 -308 84z"/>
<path d="M13172 4639 c-71 -12 -114 -31 -156 -70 -44 -39 -56 -88 -31 -125 56
-87 317 -99 433 -20 70 47 66 56 -22 56 -42 0 -76 -4 -76 -8 0 -22 -68 -45
-115 -40 -61 7 -80 25 -71 72 8 41 43 73 91 82 41 7 105 -12 105 -32 0 -11 17
-14 80 -14 44 0 80 2 80 5 0 2 -5 15 -11 28 -15 34 -56 54 -130 66 -73 12
-103 12 -177 0z"/>
<path d="M14633 4640 c-102 -19 -184 -74 -199 -135 -3 -13 2 -37 11 -55 45
-87 285 -106 432 -35 56 28 82 59 90 111 5 28 1 38 -25 62 -16 16 -48 34 -70
40 -56 17 -177 23 -239 12z m159 -80 c25 -31 22 -55 -10 -91 -23 -26 -38 -33
-80 -37 -66 -6 -102 14 -102 59 0 17 5 39 11 50 27 51 145 63 181 19z"/>
<path d="M2436 4618 c-3 -13 -6 -26 -6 -30 0 -5 32 -8 70 -8 82 0 79 6 51
-118 l-19 -83 81 3 82 3 21 95 21 95 74 3 c74 3 89 10 89 45 0 16 -18 17 -229
17 l-229 0 -6 -22z"/>
<path d="M3016 4513 l-119 -128 73 -3 c54 -2 77 1 89 13 25 21 186 22 195 0 4
-11 23 -15 81 -15 41 0 75 4 75 8 0 5 -24 62 -53 128 l-54 119 -84 3 -85 3
-118 -128z m194 22 c28 -73 27 -75 -29 -75 -28 0 -51 4 -51 9 0 14 52 91 62
91 5 0 13 -11 18 -25z"/>
<path d="M4117 4633 c-4 -3 -7 -17 -7 -30 0 -22 3 -23 70 -23 39 0 70 -4 70
-9 0 -6 -9 -47 -20 -93 -11 -46 -20 -86 -20 -90 0 -5 36 -8 79 -8 l79 0 24 98
23 97 78 3 c57 2 77 6 77 17 0 7 3 20 6 29 5 14 -18 16 -223 16 -126 0 -233
-3 -236 -7z"/>
<path d="M4695 4628 c-6 -20 -55 -234 -55 -241 0 -4 36 -7 79 -7 l79 0 27 113
c14 61 28 120 31 130 5 15 -3 17 -76 17 -56 0 -82 -4 -85 -12z"/>
<path d="M5639 4548 c-47 -51 -100 -110 -118 -130 l-33 -38 75 0 c54 0 78 4
87 15 9 11 34 15 100 15 69 0 89 -3 94 -15 4 -11 23 -15 81 -15 41 0 75 4 75
8 0 5 -24 62 -53 128 l-54 119 -84 3 -84 3 -86 -93z m161 -13 c28 -73 27 -75
-29 -75 -28 0 -51 5 -51 10 0 15 51 90 62 90 4 0 13 -11 18 -25z"/>
<path d="M6175 4628 c-7 -20 -55 -227 -55 -238 0 -6 71 -10 195 -10 162 0 195
2 195 14 0 8 3 21 6 30 5 14 -8 16 -111 16 -106 0 -116 2 -111 18 3 9 14 54
24 100 l19 82 -79 0 c-54 0 -80 -4 -83 -12z"/>
<path d="M7061 4603 c-16 -60 -51 -207 -51 -215 0 -5 95 -8 210 -8 116 0 210
3 210 8 0 4 3 17 6 30 6 22 6 22 -120 22 -119 0 -126 1 -126 20 0 19 7 20 109
20 l109 0 4 30 5 30 -104 0 c-96 0 -103 1 -103 20 0 19 7 20 125 20 125 0 125
0 135 26 6 14 10 27 10 30 0 2 -92 4 -205 4 l-204 0 -10 -37z"/>
<path d="M8151 4618 c-5 -13 -20 -71 -33 -130 l-26 -108 83 0 82 0 7 39 6 38
102 5 c144 8 218 41 218 98 0 61 -63 79 -278 80 -149 0 -153 -1 -161 -22z
m278 -52 c22 -26 -13 -46 -80 -46 -32 0 -59 3 -59 8 0 4 3 17 6 30 6 20 13 22
64 22 37 0 62 -5 69 -14z"/>
<path d="M8715 4628 c-7 -20 -55 -227 -55 -238 0 -6 33 -10 79 -10 l79 0 27
118 c14 64 28 123 30 130 3 9 -16 12 -76 12 -55 0 -81 -4 -84 -12z"/>
<path d="M9625 4523 c-15 -65 -30 -124 -33 -131 -3 -10 13 -12 74 -10 l79 3
15 63 c8 34 19 62 25 62 5 -1 39 -30 75 -65 l65 -65 77 0 c76 0 78 0 84 28 3
15 14 61 24 102 10 41 21 88 24 103 l7 28 -78 -3 -78 -3 -15 -70 -16 -70 -75
73 -76 72 -75 0 -76 0 -27 -117z"/>
<path d="M10364 4577 c-32 -35 -85 -92 -117 -128 l-58 -64 72 -3 c54 -2 76 1
88 13 25 21 186 22 195 0 4 -11 23 -15 81 -15 41 0 75 4 75 9 0 7 -38 92 -97
219 l-15 32 -83 0 -82 0 -59 -63z m135 -39 c4 -13 11 -35 15 -50 6 -28 6 -28
-49 -28 -30 0 -55 3 -55 6 0 8 70 94 76 94 2 0 8 -10 13 -22z"/>
<path d="M11486 4623 c-7 -24 -56 -234 -56 -239 0 -2 94 -4 209 -4 181 0 210
2 215 16 16 42 12 44 -119 44 -118 0 -125 1 -125 20 0 19 7 20 105 20 104 0
106 0 115 26 6 14 10 27 10 30 0 2 -48 4 -106 4 -95 0 -105 2 -102 18 3 15 18
17 123 20 98 2 122 5 133 19 30 41 22 43 -192 43 -186 0 -205 -2 -210 -17z"/>
<path d="M12564 4584 c-27 -31 -79 -88 -116 -128 l-68 -71 71 -3 c54 -2 76 1
88 13 25 21 189 22 197 0 5 -12 24 -15 84 -15 l79 0 -39 90 c-22 49 -49 108
-60 130 l-20 40 -83 0 -83 0 -50 -56z m131 -60 c24 -58 21 -64 -35 -64 -29 0
-50 5 -50 11 0 9 59 89 67 89 1 0 10 -16 18 -36z"/>
<path d="M13596 4624 c-15 -39 -8 -44 64 -44 82 0 80 4 50 -110 -11 -41 -20
-78 -20 -82 0 -5 36 -8 80 -8 l79 0 10 38 c6 20 16 64 23 97 l13 60 78 3 c42
2 77 6 77 10 0 4 3 17 6 30 l6 22 -230 0 c-200 0 -231 -2 -236 -16z"/>
<path d="M14174 4613 c-3 -16 -14 -62 -24 -103 -10 -41 -21 -87 -24 -102 l-6
-28 79 0 c67 0 80 3 85 18 7 24 56 231 56 237 0 3 -36 5 -80 5 -79 0 -80 0
-86 -27z"/>
<path d="M15115 4628 c-8 -24 -55 -223 -55 -235 0 -9 22 -13 75 -13 l74 0 10
38 c6 20 11 46 11 57 1 51 16 46 87 -25 l71 -71 78 3 79 3 27 115 c15 63 28
121 28 128 0 8 -21 12 -75 12 l-74 0 -10 -37 c-6 -21 -11 -47 -11 -58 -1 -48
-16 -44 -90 25 l-75 70 -73 0 c-49 0 -74 -4 -77 -12z"/>
<path d="M1455 4149 c-4 -6 -49 -196 -100 -422 -52 -227 -139 -612 -195 -857
-56 -245 -146 -641 -200 -880 -54 -239 -106 -464 -114 -500 -26 -110 -48 -100
213 -100 173 0 232 3 238 13 4 6 18 59 30 117 12 58 76 357 143 665 66 308
127 589 134 625 58 270 89 407 96 419 4 8 11 -111 15 -265 3 -153 10 -382 13
-509 l7 -230 174 0 174 0 241 455 c273 515 310 580 300 535 -11 -55 -217 -863
-240 -939 -8 -27 -14 -51 -14 -53 0 -2 120 -2 267 -1 l267 3 168 735 c92 404
190 834 218 955 27 121 50 226 50 233 0 9 -68 12 -308 12 -349 0 -319 7 -365
-85 -13 -27 -119 -223 -234 -435 -115 -212 -231 -425 -258 -475 -71 -133 -96
-175 -105 -175 -4 0 -10 260 -15 578 -4 317 -9 580 -12 585 -7 12 -581 9 -588
-4z"/>
<path d="M3570 4123 c-15 -56 -90 -388 -90 -401 0 -9 169 -12 670 -12 l670 0
5 23 c22 93 95 420 95 423 0 2 -301 4 -670 4 l-669 0 -11 -37z"/>
<path d="M5070 4157 c0 -2 -22 -101 -50 -221 -27 -120 -50 -220 -50 -222 0 -2
110 -4 245 -4 216 0 245 -2 245 -16 0 -14 -39 -191 -130 -589 -162 -707 -200
-874 -200 -879 0 -3 119 -6 264 -6 243 0 265 1 270 18 3 9 34 150 71 312 36
162 74 331 85 375 10 44 51 222 90 395 39 173 75 332 81 353 l10 37 239 0
c143 0 241 4 245 10 3 5 26 98 51 207 25 109 47 206 50 216 5 16 -36 17 -755
17 -419 0 -761 -1 -761 -3z"/>
<path d="M6934 4038 c-37 -68 -92 -165 -121 -215 -29 -51 -53 -97 -53 -103 0
-7 154 -10 451 -10 l450 0 -7 70 c-3 39 -14 139 -23 223 l-16 152 -306 3 -307
2 -68 -122z"/>
<path d="M8301 3883 c-101 -445 -200 -881 -222 -973 -11 -47 -50 -220 -87
-385 l-68 -300 665 -3 c366 -1 668 1 673 6 5 5 108 431 108 449 0 2 -182 3
-405 3 -223 0 -405 2 -405 5 0 2 33 150 74 327 151 660 245 1074 251 1111 l7
37 -264 0 -263 0 -64 -277z"/>
<path d="M10416 4138 c-11 -13 -46 -54 -79 -93 -32 -38 -67 -79 -76 -90 -106
-126 -227 -268 -342 -399 -125 -144 -249 -296 -249 -307 0 -7 27 -94 59 -193
33 -100 108 -328 166 -509 l106 -327 627 2 627 3 142 620 c78 341 142 628 143
638 0 16 -29 17 -464 17 -434 0 -465 -1 -470 -17 -3 -10 -21 -90 -41 -178 -20
-88 -42 -183 -49 -212 -8 -28 -11 -55 -8 -58 3 -3 94 -5 202 -5 183 1 195 0
192 -17 -2 -10 -18 -86 -37 -169 -19 -84 -35 -154 -35 -158 0 -3 -91 -6 -203
-6 l-203 0 -59 183 c-32 100 -73 225 -91 279 l-32 96 131 154 c73 85 163 192
201 236 l69 82 477 0 476 0 13 63 c7 34 25 116 41 183 16 66 32 139 36 162 l7
42 -629 0 -630 0 -18 -22z"/>
<path d="M11936 4143 c-8 -28 -96 -414 -96 -424 0 -5 295 -9 669 -9 629 0 670
1 675 18 8 24 96 415 96 425 0 4 -301 7 -669 7 -629 0 -670 -1 -675 -17z"/>
<path d="M13979 4139 c-6 -12 -60 -109 -120 -216 -60 -107 -109 -199 -109
-204 0 -5 191 -9 450 -9 l451 0 -6 58 c-4 31 -14 131 -23 222 l-17 165 -307 3
c-305 2 -307 2 -319 -19z"/>
<path d="M15355 4138 c-18 -78 -95 -420 -95 -424 0 -2 213 -4 474 -4 470 0
474 0 501 -22 24 -19 27 -26 22 -65 -6 -52 -53 -108 -102 -121 -16 -5 -233 -7
-480 -4 -376 4 -452 2 -461 -9 -9 -12 -40 -140 -100 -409 -12 -54 -89 -396
-159 -699 -19 -85 -35 -156 -35 -158 0 -2 119 -3 264 -3 243 0 265 1 270 18 3
9 17 71 32 137 14 66 44 197 65 290 22 94 49 214 61 268 l21 97 49 0 c32 0 48
-4 48 -13 0 -11 24 -93 161 -542 17 -55 57 -185 90 -290 193 -628 239 -779
239 -790 0 -3 126 -5 280 -5 154 0 280 3 280 7 0 7 -242 751 -280 863 -34 98
-260 796 -260 802 0 4 17 12 38 18 152 49 301 178 369 320 53 110 68 173 68
295 0 172 -63 302 -186 384 -114 76 -103 75 -666 79 l-502 3 -6 -23z"/>
<path d="M16680 4146 c0 -9 12 -16 33 -18 l32 -3 0 -83 c0 -71 2 -82 17 -82
15 0 18 12 20 83 l3 82 33 3 c20 2 32 9 32 18 0 11 -18 14 -85 14 -67 0 -85
-3 -85 -14z"/>
<path d="M16870 4060 c0 -92 2 -100 19 -100 18 0 19 5 14 54 -8 75 10 78 37 6
30 -79 48 -79 80 3 l25 62 3 -62 c3 -55 5 -63 23 -63 19 0 20 6 17 98 -3 96
-3 97 -28 97 -22 0 -28 -8 -49 -67 -13 -38 -27 -68 -31 -68 -5 0 -21 32 -36
70 -23 59 -31 70 -51 70 -23 0 -23 -2 -23 -100z"/>
<path d="M3425 3488 c-3 -7 -50 -211 -104 -453 -55 -242 -118 -520 -140 -617
-23 -98 -41 -182 -41 -188 0 -7 217 -10 670 -10 l670 0 5 23 c2 12 13 60 24
107 38 163 71 313 71 321 0 5 -182 9 -404 9 l-404 0 13 58 c7 31 25 110 40
174 l26 118 407 2 406 3 52 225 c29 124 50 228 47 233 -2 4 -303 7 -669 7
-523 0 -666 -3 -669 -12z"/>
<path d="M6624 3483 c-11 -18 -141 -250 -195 -348 -15 -27 -136 -243 -268
-480 l-240 -430 266 -3 c243 -2 268 -1 278 15 14 24 140 246 181 319 18 34 85
153 148 265 l114 204 145 3 146 3 5 -43 c8 -60 30 -272 57 -540 l23 -228 263
0 263 0 0 30 c0 17 -7 90 -15 163 -17 154 -44 416 -80 782 -14 143 -28 270
-31 283 l-4 22 -523 0 c-487 0 -523 -1 -533 -17z"/>
<path d="M11781 3463 c-10 -38 -48 -207 -176 -768 -36 -159 -75 -327 -85 -373
-11 -46 -20 -88 -20 -93 0 -5 268 -9 669 -9 629 0 670 1 675 18 11 37 96 418
96 430 0 9 -87 12 -400 12 -327 0 -400 2 -400 13 0 16 70 330 74 335 2 1 184
3 404 2 220 0 403 3 406 8 5 8 106 442 106 456 0 3 -301 6 -670 6 l-669 0 -10
-37z"/>
<path d="M13542 3358 c-43 -79 -123 -222 -177 -318 -54 -96 -113 -202 -131
-235 -39 -73 -241 -434 -254 -455 -5 -8 -23 -41 -40 -72 l-30 -58 269 0 269 0
68 123 c37 67 76 138 87 157 153 270 287 514 287 521 0 5 67 9 149 9 l149 0 6
-47 c9 -70 76 -725 76 -745 0 -17 19 -18 265 -18 260 0 265 0 265 20 0 12 -7
83 -15 158 -8 75 -35 340 -60 587 -25 248 -48 465 -51 483 l-5 32 -524 0 -523
0 -80 -142z"/>
<path d="M1597 1993 c-6 -22 -13 -54 -72 -338 -26 -121 -48 -228 -51 -237 -5
-17 346 -18 7280 -18 l7285 0 -16 53 c-9 28 -48 165 -87 302 l-72 250 -7131 3
c-6786 2 -7132 1 -7136 -15z m4320 -70 c43 -20 63 -49 63 -90 l0 -33 -84 0
c-63 0 -87 4 -96 16 -9 9 -26 14 -48 12 -57 -5 -50 -25 15 -43 32 -9 75 -20
95 -26 20 -5 51 -21 69 -36 28 -24 31 -31 27 -74 -10 -100 -96 -158 -246 -166
-108 -6 -165 8 -209 52 -25 25 -33 42 -33 69 l0 36 85 0 c77 0 86 -2 110 -26
21 -21 32 -25 58 -20 38 8 55 22 42 35 -6 5 -48 19 -95 30 -47 12 -96 30 -110
40 -67 49 -44 162 43 208 81 43 240 51 314 16z m1505 3 c107 -45 137 -166 71
-287 -32 -61 -69 -93 -143 -128 -48 -23 -68 -26 -160 -26 -92 0 -110 3 -146
24 -62 35 -88 88 -82 165 9 107 65 188 161 235 86 42 221 49 299 17z m1358 7
c-1 -5 -18 -79 -39 -165 l-38 -158 113 0 c63 0 114 -4 114 -9 0 -5 -5 -32 -12
-60 l-11 -51 -210 0 -209 0 5 23 c3 12 27 113 53 225 l48 202 93 0 c51 0 93
-3 93 -7z m1426 -15 c-3 -13 -27 -114 -53 -225 l-47 -203 -94 0 c-85 0 -94 2
-90 18 2 9 27 110 53 225 l49 207 94 0 c93 0 94 0 88 -22z m1422 -10 c67 -33
87 -66 85 -137 -2 -110 -67 -208 -167 -253 -45 -20 -71 -23 -223 -26 -168 -4
-173 -3 -173 16 0 18 62 287 91 396 l11 39 165 -6 c145 -5 170 -8 211 -29z"/>
<path d="M7231 1812 c-50 -25 -74 -63 -79 -125 -4 -48 -2 -56 19 -71 69 -48
169 32 169 137 0 59 -54 88 -109 59z"/>
<path d="M11405 1808 c-6 -18 -45 -181 -45 -190 0 -5 18 -8 40 -8 53 0 103 43
120 104 15 53 6 84 -27 97 -35 13 -83 11 -88 -3z"/>
</g>
</svg>
